<svg width="520" height="520" viewBox="0 0 520 520" fill="none" xmlns="http://www.w3.org/2000/svg" role="img" aria-labelledby="title desc">
  <title id="title">HIP.markets risk sentinel cat</title>
  <desc id="desc">An original dark terminal cat mascot wearing a market-operator headset and watching risk signals.</desc>
  <rect width="520" height="520" rx="104" fill="#07090C"/>
  <circle cx="260" cy="266" r="172" fill="#10151B" stroke="#26313C" stroke-width="8"/>
  <path d="M139 196L174 83L235 164" fill="#151B23" stroke="#32D296" stroke-width="8" stroke-linejoin="round"/>
  <path d="M381 196L346 83L285 164" fill="#151B23" stroke="#68A7FF" stroke-width="8" stroke-linejoin="round"/>
  <path d="M141 262C141 176 194 133 260 133C326 133 379 176 379 262C379 351 328 401 260 401C192 401 141 351 141 262Z" fill="#151B23" stroke="#354250" stroke-width="8"/>
  <path d="M176 260C190 239 222 236 238 260" stroke="#32D296" stroke-width="9" stroke-linecap="round"/>
  <path d="M282 260C298 236 330 239 344 260" stroke="#32D296" stroke-width="9" stroke-linecap="round"/>
  <path d="M252 291L260 300L268 291" stroke="#F4C45F" stroke-width="8" stroke-linecap="round" stroke-linejoin="round"/>
  <path d="M224 329C245 345 275 345 296 329" stroke="#EDF3F6" stroke-width="7" stroke-linecap="round"/>
  <path d="M114 292H178" stroke="#68A7FF" stroke-width="7" stroke-linecap="round"/>
  <path d="M342 292H406" stroke="#68A7FF" stroke-width="7" stroke-linecap="round"/>
  <path d="M118 322H176" stroke="#26313C" stroke-width="7" stroke-linecap="round"/>
  <path d="M344 322H402" stroke="#26313C" stroke-width="7" stroke-linecap="round"/>
  <path d="M180 156C146 165 125 197 125 238" stroke="#32D296" stroke-width="8" stroke-linecap="round"/>
  <path d="M340 156C374 165 395 197 395 238" stroke="#68A7FF" stroke-width="8" stroke-linecap="round"/>
  <path d="M390 237H423C437 237 448 248 448 262V295C448 309 437 320 423 320H392" stroke="#68A7FF" stroke-width="8" stroke-linecap="round"/>
  <path d="M422 320C423 348 408 372 382 389" stroke="#68A7FF" stroke-width="8" stroke-linecap="round"/>
  <rect x="186" y="408" width="148" height="44" rx="22" fill="#0C1117" stroke="#32D296" stroke-width="5"/>
  <path d="M212 430H308" stroke="#32D296" stroke-width="7" stroke-linecap="round"/>
  <circle cx="369" cy="174" r="17" fill="#F4C45F"/>
  <path d="M360 174H378" stroke="#07090C" stroke-width="5" stroke-linecap="round"/>
  <path d="M369 165V183" stroke="#07090C" stroke-width="5" stroke-linecap="round"/>
</svg>
